<?xml version="1.0" standalone="no"?>
<!DOCTYPE svg PUBLIC "-//W3C//DTD SVG 20010904//EN"
 "http://www.w3.org/TR/2001/REC-SVG-20010904/DTD/svg10.dtd">
<svg version="1.0" xmlns="http://www.w3.org/2000/svg"
 width="1500.000000pt" height="1500.000000pt" viewBox="0 0 1500.000000 1500.000000"
 preserveAspectRatio="xMidYMid meet">
<metadata>
Created by potrace 1.16, written by Peter Selinger 2001-2019
</metadata>
<g transform="translate(0.000000,1500.000000) scale(0.100000,-0.100000)"
fill="#000000" stroke="none">
<path d="M7176 12098 c12 -19 -20 -28 -72 -22 -46 5 -52 4 -57 -15 -4 -17 -10
-20 -36 -15 -27 6 -31 4 -31 -16 0 -19 -4 -21 -30 -15 -26 6 -30 4 -30 -15 0
-19 -4 -21 -30 -15 -24 5 -29 4 -24 -8 3 -10 -2 -18 -15 -22 -12 -3 -21 -13
-21 -21 0 -12 -8 -13 -35 -8 -30 5 -34 4 -29 -10 4 -11 1 -16 -10 -16 -9 0
-16 -7 -16 -15 0 -9 -7 -18 -15 -21 -8 -4 -15 -12 -15 -20 0 -8 -6 -14 -14
-14 -8 0 -17 -7 -20 -16 -4 -10 -13 -13 -27 -9 -15 5 -19 4 -15 -4 7 -11 -33
-32 -46 -24 -4 2 -5 -3 -2 -11 6 -15 -6 -21 -29 -17 -5 1 -6 -3 -2 -9 7 -11
-102 -123 -113 -116 -4 2 -9 -7 -10 -21 -3 -34 -10 -41 -23 -23 -8 11 -9 8 -5
-13 5 -19 2 -29 -9 -33 -8 -4 -15 -10 -15 -15 0 -11 -99 -109 -110 -109 -6 0
-10 -4 -10 -10 0 -13 -37 -50 -50 -50 -5 0 -10 -4 -10 -10 0 -13 -37 -50 -50
-50 -5 0 -10 -7 -10 -15 0 -8 -7 -15 -15 -15 -8 0 -15 -7 -15 -15 0 -8 -5 -15
-10 -15 -6 0 -30 -21 -54 -46 -28 -29 -49 -43 -57 -38 -8 5 -10 3 -5 -5 5 -8
0 -14 -13 -18 -12 -3 -21 -12 -21 -19 0 -8 -9 -14 -20 -14 -13 0 -18 -5 -14
-15 4 -9 0 -15 -9 -15 -8 0 -17 -7 -21 -15 -3 -8 -10 -15 -16 -15 -5 0 -19 -9
-30 -20 -12 -12 -26 -18 -32 -14 -6 4 -8 3 -5 -3 8 -13 -17 -36 -27 -26 -4 4
-4 0 0 -10 6 -16 -5 -22 -29 -18 -5 1 -6 -3 -3 -8 8 -12 -18 -33 -29 -23 -5 4
-5 1 -1 -6 5 -8 -35 -55 -113 -134 -67 -67 -121 -125 -121 -130 0 -4 -4 -8
-10 -8 -13 0 -50 -37 -50 -50 0 -5 -7 -10 -15 -10 -8 0 -15 -4 -15 -9 0 -13
-218 -231 -231 -231 -5 0 -9 -7 -9 -15 0 -8 -7 -15 -15 -15 -8 0 -15 -7 -15
-15 0 -8 -7 -15 -15 -15 -8 0 -15 -7 -15 -15 0 -8 -7 -15 -15 -15 -8 0 -15 -7
-15 -15 0 -8 -5 -15 -10 -15 -6 0 -30 -20 -54 -45 -32 -33 -48 -44 -62 -39
-16 5 -16 4 -4 -5 13 -9 12 -12 -7 -17 -13 -4 -23 -13 -23 -20 0 -8 -7 -14
-15 -14 -8 0 -15 -7 -15 -15 0 -8 -7 -15 -15 -15 -8 0 -15 -7 -15 -15 0 -8 -7
-15 -15 -15 -8 0 -30 -16 -50 -35 -19 -20 -40 -33 -45 -30 -6 3 -7 -1 -4 -9 6
-14 -5 -21 -28 -17 -4 0 -5 -6 -2 -14 6 -14 -6 -20 -29 -16 -5 1 -6 -3 -2 -9
3 -5 -62 -78 -144 -162 -83 -83 -151 -153 -151 -154 0 -8 -193 -194 -201 -194
-5 0 -9 -4 -9 -10 0 -13 -37 -50 -50 -50 -5 0 -10 -4 -10 -10 0 -13 -37 -50
-50 -50 -5 0 -10 -7 -10 -15 0 -8 -7 -15 -15 -15 -8 0 -15 -7 -15 -15 0 -8 -4
-15 -10 -15 -5 0 -36 -27 -69 -60 -41 -42 -63 -59 -75 -54 -12 5 -15 2 -10
-10 4 -11 1 -16 -10 -16 -9 0 -16 -7 -16 -15 0 -8 -7 -15 -15 -15 -8 0 -15 -7
-15 -15 0 -8 -9 -15 -20 -15 -11 0 -20 -7 -20 -15 0 -13 -18 -20 -42 -16 -4 0
-5 -6 -2 -14 5 -13 -6 -20 -28 -16 -4 0 -5 -6 -2 -14 6 -14 -6 -20 -29 -16 -5
1 -6 -3 -3 -8 8 -12 -18 -33 -29 -23 -5 4 -5 1 -1 -6 6 -9 -36 -58 -130 -152
-77 -76 -153 -154 -171 -174 -17 -20 -36 -36 -42 -36 -6 0 -11 -7 -11 -15 0
-8 -7 -15 -15 -15 -8 0 -15 -4 -15 -9 0 -13 -128 -141 -141 -141 -5 0 -9 -7
-9 -15 0 -8 -7 -15 -15 -15 -8 0 -15 -7 -15 -15 0 -8 -7 -15 -15 -15 -8 0 -15
-4 -15 -10 0 -10 -36 -50 -45 -50 -9 0 -45 -40 -45 -50 0 -5 -4 -10 -9 -10 -5
0 -37 -27 -71 -60 -34 -33 -66 -57 -71 -54 -5 3 -9 -2 -9 -10 0 -9 -9 -16 -20
-16 -13 0 -18 -5 -14 -15 4 -8 1 -15 -5 -15 -7 0 -25 -14 -40 -31 -15 -16 -37
-31 -48 -32 -13 0 -19 -6 -16 -14 5 -11 -8 -17 -29 -14 -4 0 -5 -6 -2 -14 6
-14 -6 -20 -29 -16 -5 1 -6 -3 -3 -8 8 -12 -18 -33 -29 -23 -5 4 -5 2 -1 -5 7
-13 -183 -213 -203 -213 -6 0 -11 -11 -11 -25 0 -18 5 -25 20 -25 11 0 20 -4
20 -10 0 -5 34 -43 76 -84 48 -47 73 -79 68 -87 -4 -7 -3 -9 3 -6 12 8 36 -17
26 -26 -3 -4 1 -7 10 -7 9 0 17 -7 17 -15 0 -8 7 -15 15 -15 8 0 15 -7 15 -15
0 -8 7 -15 15 -15 8 0 15 -7 15 -15 0 -8 7 -15 15 -15 8 0 15 -7 15 -15 0 -8
7 -15 15 -15 8 0 15 -7 15 -15 0 -8 7 -15 15 -15 8 0 15 -7 15 -15 0 -8 7 -15
15 -15 8 0 15 -7 15 -15 0 -8 7 -15 15 -15 8 0 15 -9 15 -21 0 -11 5 -17 10
-14 6 3 13 -2 17 -11 3 -10 15 -26 25 -36 10 -10 16 -23 13 -29 -4 -5 -3 -8 2
-7 4 1 18 -1 31 -6 19 -6 26 -21 24 -46 0 -3 9 -7 20 -7 27 -2 39 -14 41 -41
0 -11 4 -20 7 -20 22 2 31 -4 27 -16 -4 -10 -1 -13 9 -9 12 4 19 -7 15 -29 0
-4 6 -5 14 -2 13 6 20 -6 16 -29 0 -4 2 -6 6 -6 24 4 35 -3 29 -17 -3 -8 -2
-12 4 -9 14 9 63 -43 54 -57 -4 -6 -3 -8 3 -5 13 8 36 -17 26 -27 -4 -4 0 -4
10 0 16 6 22 -5 18 -29 -1 -5 3 -6 8 -3 11 7 33 -18 24 -28 -4 -4 -1 -5 7 -2
10 4 176 -156 494 -474 263 -264 480 -480 482 -480 7 0 134 -134 134 -141 0
-5 4 -9 9 -9 13 0 231 -218 231 -231 0 -5 5 -9 10 -9 13 0 50 -37 50 -50 0 -5
7 -10 15 -10 8 0 15 -7 15 -15 0 -8 4 -15 9 -15 12 0 291 -279 291 -291 0 -5
7 -9 15 -9 8 0 15 -7 15 -15 0 -8 5 -15 10 -15 13 0 50 -37 50 -50 0 -5 7 -10
15 -10 8 0 15 -7 15 -15 0 -8 7 -15 15 -15 8 0 15 -7 15 -15 0 -8 7 -15 15
-15 8 0 15 -7 15 -15 0 -8 7 -15 15 -15 8 0 15 -7 15 -15 0 -8 7 -15 15 -15 8
0 15 -4 15 -10 0 -12 68 -80 80 -80 6 0 10 -7 10 -15 0 -8 7 -15 15 -15 8 0
15 -4 15 -9 0 -13 128 -141 141 -141 5 0 9 -4 9 -9 0 -6 68 -78 151 -160 83
-83 148 -154 145 -160 -3 -5 2 -8 12 -7 11 1 16 -6 15 -17 0 -10 2 -16 5 -13
8 9 33 -15 26 -25 -3 -5 2 -9 10 -9 9 0 16 -7 16 -15 0 -8 7 -15 15 -15 8 0
15 -7 15 -15 0 -8 7 -15 15 -15 8 0 15 -9 15 -20 0 -14 5 -18 17 -13 12 5 15
2 10 -10 -5 -12 -1 -17 13 -17 11 0 20 -7 20 -15 0 -8 7 -15 15 -15 8 0 15 -9
15 -20 0 -13 5 -18 15 -14 9 4 15 0 15 -10 0 -9 7 -16 15 -16 8 0 15 -9 15
-20 0 -11 3 -19 8 -18 9 3 52 -34 52 -44 0 -5 9 -17 20 -28 12 -12 18 -25 15
-31 -4 -5 -3 -9 2 -8 25 4 42 -4 63 -33 13 -17 23 -37 23 -44 0 -7 5 -10 12
-8 14 6 87 -74 80 -87 -4 -5 1 -6 9 -3 15 6 21 -6 16 -31 -1 -5 2 -7 6 -3 9
10 36 -11 28 -23 -3 -5 2 -6 10 -3 15 6 21 -6 16 -31 -1 -5 2 -7 6 -3 10 11
35 -12 27 -26 -3 -6 -3 -8 2 -4 11 11 36 -12 28 -25 -3 -6 -1 -7 6 -3 7 5 53
-34 122 -103 61 -61 114 -111 120 -111 5 0 9 -7 9 -16 0 -11 6 -14 20 -9 13 4
22 1 26 -9 3 -9 12 -16 19 -16 7 0 15 -9 18 -21 4 -15 11 -19 26 -14 14 4 23
0 31 -15 8 -15 17 -19 31 -15 15 5 22 2 26 -13 3 -15 13 -19 36 -18 25 1 32
-3 31 -17 -2 -16 5 -18 50 -15 41 2 51 0 50 -12 -1 -14 29 -16 243 -17 134 -1
241 2 238 7 -11 18 25 31 68 25 40 -6 45 -5 50 15 5 18 10 21 35 15 25 -5 30
-3 28 12 -1 14 5 17 31 16 24 -2 31 1 27 11 -6 15 46 46 78 46 10 0 18 6 18
13 0 7 13 24 30 37 16 14 29 31 30 38 0 6 6 12 14 12 8 0 16 7 20 15 4 11 14
13 37 8 23 -4 30 -3 25 5 -10 16 220 246 236 236 7 -4 8 -3 4 4 -4 6 2 20 12
30 10 10 22 26 25 36 4 9 11 14 17 11 5 -3 10 3 10 14 0 12 7 21 15 21 8 0 15
7 15 15 0 8 9 15 21 15 11 0 17 5 14 10 -3 6 1 13 9 16 9 3 16 12 16 20 0 12
27 20 53 15 5 -1 6 3 2 9 -8 14 42 63 57 54 7 -4 8 -3 4 5 -5 7 61 80 173 192
100 100 181 185 181 190 0 5 5 9 10 9 10 0 50 36 50 45 0 8 101 105 110 105 6
0 10 5 10 10 0 13 37 50 50 50 6 0 10 5 10 10 0 10 36 50 45 50 2 0 45 41 94
91 50 50 95 88 101 84 5 -3 10 1 10 9 0 9 7 16 15 16 8 0 15 7 15 15 0 8 9 15
20 15 13 0 18 5 14 15 -4 9 0 15 10 15 8 0 31 16 51 35 20 21 40 33 47 29 6
-4 8 -3 5 3 -8 13 17 36 27 26 4 -4 4 0 0 10 -6 16 4 22 29 18 4 0 6 2 6 6 -4
24 3 35 17 29 8 -3 12 -2 9 4 -3 6 75 91 174 191 100 99 181 185 181 190 0 5
5 9 10 9 10 0 50 36 50 45 0 9 71 75 80 75 6 0 10 7 10 15 0 8 7 15 15 15 8 0
15 5 15 10 0 13 37 50 50 50 6 0 10 7 10 15 0 8 7 15 15 15 8 0 15 7 15 15 0
8 4 15 10 15 5 0 36 27 69 60 41 42 63 59 75 54 12 -5 15 -2 10 10 -4 11 -1
16 10 16 9 0 16 7 16 15 0 8 9 15 20 15 13 0 18 5 14 15 -4 9 0 15 10 15 9 0
16 7 16 15 0 8 9 15 20 15 11 0 20 7 20 15 0 8 5 15 10 15 6 0 19 9 30 20 12
12 25 18 30 15 6 -3 7 1 4 9 -6 14 5 21 28 17 4 0 5 6 2 14 -6 14 6 20 29 16
5 -1 6 3 2 8 -3 6 76 92 175 192 99 100 180 186 180 191 0 4 7 8 15 8 8 0 15
4 15 10 0 12 98 110 110 110 6 0 10 7 10 15 0 8 7 15 15 15 8 0 15 4 15 10 0
13 37 50 50 50 6 0 10 7 10 15 0 8 4 15 10 15 5 0 50 41 99 91 57 57 95 88
102 83 8 -5 9 -3 5 5 -5 8 0 14 13 18 12 3 21 12 21 19 0 8 9 14 20 14 11 0
19 3 18 8 -5 13 39 53 60 55 12 0 18 6 15 14 -5 11 8 17 29 14 4 0 5 6 2 14
-6 14 7 20 31 15 6 -1 7 2 3 6 -11 10 12 35 25 27 6 -3 7 -1 3 6 -5 8 63 82
188 207 108 107 196 199 196 205 0 5 7 9 15 9 8 0 15 4 15 10 0 12 98 110 110
110 6 0 10 5 10 10 0 12 37 50 49 50 5 0 11 14 15 31 8 43 8 49 -6 49 -6 0
-227 216 -490 480 -264 264 -483 480 -489 480 -5 0 -9 7 -9 15 0 8 -7 15 -15
15 -8 0 -15 7 -15 15 0 8 -4 15 -9 15 -13 0 -141 128 -141 141 0 5 -4 9 -10 9
-12 0 -80 68 -80 80 0 6 -4 10 -10 10 -12 0 -110 98 -110 110 0 6 -7 10 -15
10 -8 0 -15 7 -15 15 0 8 -7 15 -15 15 -8 0 -15 7 -15 15 0 8 -4 15 -10 15 -5
0 -19 9 -30 20 -11 11 -20 25 -20 30 0 6 -4 10 -10 10 -9 0 -110 97 -110 105
0 9 -40 45 -50 45 -5 0 -10 7 -10 15 0 8 -4 15 -10 15 -10 0 -50 36 -50 45 0
9 -40 45 -50 45 -5 0 -10 7 -10 15 0 8 -7 15 -15 15 -8 0 -15 7 -15 15 0 8 -7
15 -15 15 -8 0 -15 7 -15 15 0 8 -7 15 -15 15 -8 0 -15 4 -15 9 0 13 -128 141
-141 141 -5 0 -9 7 -9 15 0 8 -7 15 -15 15 -8 0 -15 4 -15 9 0 5 -34 43 -75
86 -43 44 -72 82 -68 88 3 7 3 9 -2 5 -10 -10 -37 11 -29 23 3 5 -2 9 -10 9
-9 0 -16 7 -16 15 0 8 -7 15 -15 15 -8 0 -15 7 -15 15 0 8 -7 15 -15 15 -8 0
-15 7 -15 15 0 8 -7 15 -15 15 -8 0 -15 7 -15 15 0 8 -7 15 -15 15 -8 0 -15 7
-15 15 0 8 -7 15 -15 15 -8 0 -15 7 -15 15 0 8 -7 15 -15 15 -8 0 -15 7 -15
15 0 8 -7 15 -15 15 -8 0 -15 9 -15 20 0 11 -4 19 -9 17 -5 -1 -20 10 -34 26
-14 15 -31 27 -37 27 -9 0 -15 30 -11 53 1 5 -3 6 -9 2 -14 -9 -123 101 -115
115 4 6 3 10 -2 9 -23 -4 -35 2 -29 16 3 8 2 14 -2 14 -23 -4 -34 3 -28 17 3
8 2 12 -4 9 -14 -9 -63 43 -54 57 4 6 3 8 -3 5 -13 -8 -36 17 -25 28 4 5 2 5
-4 2 -14 -8 -37 17 -26 28 4 5 2 5 -4 2 -14 -8 -37 17 -26 28 4 5 2 5 -4 2
-14 -8 -37 17 -26 28 4 5 2 5 -4 2 -14 -8 -37 17 -26 28 4 5 1 5 -6 1 -8 -5
-178 158 -508 488 -273 273 -500 496 -505 496 -5 0 -9 4 -9 9 0 9 -367 381
-376 381 -8 0 -44 40 -44 49 0 5 -7 11 -15 15 -8 3 -15 13 -15 22 0 12 -6 15
-25 10 -18 -5 -27 -2 -31 9 -4 8 -12 15 -20 15 -8 0 -14 9 -14 21 0 18 -4 20
-30 14 -28 -6 -35 0 -31 27 0 4 -16 6 -37 5 -30 -2 -37 1 -35 16 1 17 -4 18
-49 12 -43 -6 -50 -5 -54 11 -5 18 -20 19 -235 21 -153 1 -227 -2 -223 -9z
m204 -2868 c14 -16 28 -29 32 -30 11 0 168 -160 168 -171 0 -5 7 -9 15 -9 8 0
15 -7 15 -15 0 -8 4 -15 10 -15 5 0 32 -23 60 -50 27 -28 50 -55 50 -60 0 -6
5 -10 10 -10 6 0 19 -9 30 -20 11 -11 20 -24 20 -30 0 -5 7 -10 15 -10 8 0 15
-4 15 -10 0 -11 36 -50 46 -50 3 0 20 -16 37 -35 17 -20 87 -92 155 -160 80
-81 121 -129 116 -137 -4 -7 -4 -10 1 -6 11 10 37 -11 29 -23 -3 -5 -2 -9 3
-8 23 4 35 -2 29 -16 -3 -8 -2 -14 2 -14 23 4 34 -3 28 -17 -3 -8 -2 -12 3 -9
5 3 22 -7 38 -21 15 -15 38 -33 50 -41 13 -8 20 -19 17 -24 -3 -5 5 -9 16 -9
16 0 20 -5 16 -15 -4 -10 1 -15 14 -15 11 0 20 -7 20 -15 0 -8 7 -15 16 -15
11 0 14 -5 10 -16 -5 -12 -2 -15 10 -10 12 4 38 -16 90 -69 41 -41 79 -75 84
-75 6 0 10 -7 10 -15 0 -8 4 -15 10 -15 5 0 32 -23 60 -50 27 -28 50 -55 50
-60 0 -6 7 -10 15 -10 8 0 15 -7 15 -15 0 -8 4 -15 9 -15 5 0 59 -50 120 -111
61 -61 111 -115 111 -120 0 -5 7 -9 15 -9 8 0 15 -7 15 -15 0 -8 5 -15 10 -15
11 0 50 -36 50 -46 0 -3 18 -21 39 -41 38 -34 39 -36 22 -54 -10 -11 -24 -18
-32 -16 -8 2 -11 2 -6 0 13 -8 -3 -23 -24 -23 -11 0 -17 -5 -14 -10 7 -11 -35
-31 -49 -22 -5 3 -6 0 -2 -6 3 -6 -20 -39 -54 -73 -33 -35 -60 -67 -60 -71 0
-4 -7 -8 -15 -8 -8 0 -15 -4 -15 -10 0 -12 -98 -110 -110 -110 -6 0 -10 -7
-10 -15 0 -8 -5 -15 -11 -15 -5 0 -23 -14 -38 -30 -20 -22 -33 -29 -46 -24
-13 5 -16 4 -11 -4 4 -7 0 -15 -10 -19 -10 -3 -26 -15 -36 -25 -10 -10 -24
-16 -30 -12 -7 4 -8 3 -4 -4 4 -7 -18 -37 -54 -72 -33 -34 -60 -63 -60 -65 0
-9 -40 -45 -50 -45 -5 0 -10 -4 -10 -10 0 -6 -9 -19 -20 -30 -11 -11 -24 -20
-30 -20 -5 0 -10 -7 -10 -15 0 -8 -7 -15 -15 -15 -8 0 -15 -7 -15 -15 0 -8 -6
-15 -14 -15 -8 0 -17 -7 -20 -16 -4 -10 -13 -13 -26 -9 -15 5 -18 3 -14 -9 4
-12 0 -16 -16 -16 -12 0 -18 -4 -15 -10 7 -11 -35 -31 -49 -22 -5 3 -6 0 -2
-6 4 -7 -24 -43 -68 -89 -42 -42 -76 -80 -76 -85 0 -4 -7 -8 -15 -8 -8 0 -15
-4 -15 -10 0 -5 -9 -19 -20 -30 -11 -11 -24 -20 -30 -20 -5 0 -10 -7 -10 -15
0 -8 -5 -15 -10 -15 -6 0 -30 -20 -54 -45 -30 -32 -48 -44 -60 -39 -12 5 -15
2 -10 -10 4 -12 0 -16 -15 -16 -12 0 -21 -6 -21 -15 0 -13 -19 -20 -43 -16 -5
1 -6 -3 -2 -9 3 -5 -28 -44 -69 -87 -42 -42 -76 -80 -76 -85 0 -4 -7 -8 -15
-8 -8 0 -15 -4 -15 -10 0 -9 -66 -80 -74 -80 -2 0 -25 -20 -51 -45 l-48 -45
-24 25 c-14 13 -22 29 -18 35 4 6 3 10 -2 9 -23 -4 -35 2 -29 16 3 8 2 14 -2
14 -23 -4 -34 3 -28 17 3 8 2 13 -3 10 -12 -8 -33 19 -23 28 4 4 2 7 -3 6 -25
-5 -37 1 -31 16 3 9 2 12 -4 9 -6 -4 -27 10 -46 29 -20 20 -38 36 -40 36 -8 0
-44 40 -44 50 0 6 -9 10 -21 10 -15 0 -19 5 -15 15 4 10 -1 14 -17 12 -16 -1
-22 3 -21 15 1 10 -2 15 -8 12 -5 -3 -49 35 -99 85 -49 50 -94 91 -99 91 -6 0
-10 7 -10 15 0 8 -7 15 -15 15 -8 0 -15 7 -15 15 0 8 -4 15 -10 15 -5 0 -19 9
-30 20 -11 11 -20 25 -20 30 0 6 -7 10 -15 10 -8 0 -15 7 -15 15 0 8 -4 15
-10 15 -5 0 -19 9 -30 20 -11 11 -20 25 -20 30 0 6 -4 10 -10 10 -8 0 -110 96
-110 105 0 2 -88 91 -196 199 -107 108 -192 201 -189 206 4 6 3 10 -2 9 -23
-4 -35 2 -29 16 3 8 2 14 -2 14 -22 -4 -33 3 -28 16 3 8 2 14 -2 14 -22 -4
-33 3 -28 16 3 8 2 14 -2 14 -23 -4 -34 3 -28 17 3 9 2 12 -4 9 -6 -4 -27 10
-46 29 -20 20 -42 36 -50 36 -8 0 -14 7 -14 15 0 8 -7 15 -15 15 -8 0 -15 7
-15 15 0 8 -7 15 -15 15 -8 0 -15 7 -15 16 0 8 -5 12 -11 9 -5 -4 -44 27 -85
69 -41 42 -79 76 -84 76 -6 0 -10 5 -10 10 0 13 -37 50 -50 50 -6 0 -10 7 -10
15 0 8 -7 15 -15 15 -8 0 -15 7 -15 15 0 8 -7 15 -15 15 -30 0 -14 24 75 112
50 49 90 93 90 98 0 6 7 10 15 10 8 0 15 7 15 15 0 8 5 15 10 15 6 0 30 20 54
45 30 32 48 44 60 39 12 -5 15 -2 10 10 -4 11 -1 16 10 16 9 0 25 9 36 20 12
12 26 18 32 14 7 -4 8 -3 4 4 -4 7 30 49 83 103 50 49 91 95 91 100 0 5 7 9
15 9 8 0 15 7 15 15 0 8 7 15 15 15 8 0 15 7 15 15 0 8 5 15 11 15 5 0 23 14
38 30 18 21 33 29 44 24 13 -5 16 -2 11 10 -4 12 0 16 16 16 12 0 18 4 15 10
-7 11 35 31 49 22 5 -3 6 0 2 6 -4 7 30 49 83 103 50 49 91 92 91 95 0 8 40
44 50 44 6 0 10 7 10 15 0 8 5 15 10 15 6 0 30 20 54 45 30 32 48 44 60 39 12
-5 15 -2 10 10 -4 11 -1 16 10 16 9 0 25 9 36 20 12 12 26 18 32 14 7 -4 8 -3
4 4 -4 6 26 45 69 88 41 43 75 81 75 86 0 4 7 8 15 8 8 0 15 5 15 10 0 6 9 19
20 30 11 11 25 20 30 20 6 0 10 7 10 15 0 8 7 15 15 15 8 0 15 7 15 15 0 8 6
15 14 15 8 0 17 7 20 16 4 10 13 13 26 9 15 -5 18 -3 14 9 -4 12 0 16 16 16
12 0 18 4 15 10 -7 11 35 31 49 22 5 -3 6 0 2 6 -6 9 90 121 104 122 3 0 17
-13 30 -30z"/>
</g>
</svg>
